<?xml version="1.0" encoding="UTF-8"?>
<svg id="Capa_1" data-name="Capa 1" xmlns="http://www.w3.org/2000/svg" viewBox="0 0 1000 1000">
  <defs>
    <style>
      .cls-1 {
        fill: #8a9bb0;
      }

      .cls-2 {
        stroke: #8a9bb0;
        stroke-miterlimit: 10;
      }

      .cls-2, .cls-3 {
        fill: none;
        stroke-width: 40px;
      }

      .cls-4 {
        fill: #25346a;
      }

      .cls-3 {
        stroke: #25346a;
        stroke-linejoin: round;
      }
    </style>
  </defs>
  <line class="cls-2" x1="343.44" y1="665.2" x2="418.03" y2="491.42"/>
  <line class="cls-2" x1="571.31" y1="540.11" x2="636.89" y2="357.33"/>
  <circle class="cls-4" cx="214.75" cy="700.85" r="45"/>
  <circle class="cls-4" cx="418.03" cy="491.42" r="45"/>
  <circle class="cls-4" cx="571.31" cy="540.11" r="45"/>
  <circle class="cls-4" cx="779.51" cy="309.46" r="45"/>
  <circle class="cls-1" cx="343.44" cy="665.2" r="45"/>
  <circle class="cls-1" cx="636.89" cy="357.33" r="45"/>
  <polyline class="cls-3" points="571.31 540.11 418.03 271.34 214.75 700.85"/>
  <polyline class="cls-3" points="777.05 309.46 568.85 745.85 415.57 491.42"/>
  <g>
    <path class="cls-4" d="M711.84,291.53c4.91-18.57,17.26-34.12,33.67-43.26l-232.83-123.78c-7.93-4.21-17.42-4.21-25.35,0l-330.74,175.84c-8.82,4.69-14.33,13.86-14.33,23.84v351.67c0,4.73,1.25,9.28,3.49,13.26,4.56-26.95,24.51-48.65,50.51-55.75v-292.95l303.74-161.48,211.84,112.62Z"/>
    <path class="cls-4" d="M849.32,304.58c.11,1.61.19,3.24.19,4.88,0,30.14-19.05,55.83-45.77,65.69v284.46l-303.74,161.48-215.49-114.57c-1.54,19.23-10.85,36.27-24.8,47.97l227.62,121.01c3.96,2.11,8.32,3.16,12.67,3.16s8.71-1.05,12.67-3.16l330.74-175.84c8.82-4.69,14.33-13.86,14.33-23.84v-351.67c0-7.51-3.12-14.56-8.42-19.59Z"/>
  </g>
</svg>